<?xml version="1.0" encoding="iso-8859-1"?>
<!-- Generator: Adobe Illustrator 17.1.0, SVG Export Plug-In . SVG Version: 6.00 Build 0)  -->
<!DOCTYPE svg PUBLIC "-//W3C//DTD SVG 1.0//EN" "http://www.w3.org/TR/2001/REC-SVG-20010904/DTD/svg10.dtd">
<svg version="1.0" xmlns="http://www.w3.org/2000/svg" xmlns:xlink="http://www.w3.org/1999/xlink" x="0px" y="0px" width="110px"
	 height="110px" viewBox="0 0 110 110" style="enable-background:new 0 0 110 110;" xml:space="preserve">
<g id="Artboard">
</g>
<g id="Multicolor">
	<circle style="fill:#E04F5F;" cx="55" cy="55" r="55"/>
	<g>
		<rect x="27" y="27" style="fill:#FBE158;" width="32" height="56"/>
		<rect x="59" y="27" style="fill:#F99134;" width="24" height="44"/>
		<polygon style="fill:#FFFFFF;" points="23,23 87,23 83,27 27,27 		"/>
		<polygon style="fill:#FFFFFF;" points="23,87 59,87 59,83 27,83 		"/>
		<rect x="59" y="71" style="fill:#CFD3D4;" width="24" height="16"/>
		<path style="fill:#FFFFFF;" d="M79,71H63V58c0-4.418,3.582-8,8-8s8,3.582,8,8V71z"/>
		<path style="fill:#40C9E7;" d="M66,58c0-2.761,2.239-5,5-5s5,2.239,5,5H66z"/>
		<rect x="66" y="60" style="fill:#E2E4E5;" width="10" height="11"/>
		<rect x="59" y="83" style="fill:#F0F1F1;" width="24" height="2"/>
		<rect x="59" y="79" style="fill:#F0F1F1;" width="24" height="2"/>
		<rect x="59" y="75" style="fill:#F0F1F1;" width="24" height="2"/>
		<rect x="59" y="71" style="fill:#F0F1F1;" width="24" height="2"/>
		<path style="fill:#40C9E7;" d="M71,43c-2.757,0-5-2.243-5-5s2.243-5,5-5s5,2.243,5,5S73.757,43,71,43z"/>
		<path style="fill:#FFFFFF;" d="M71,33c2.757,0,5,2.243,5,5s-2.243,5-5,5s-5-2.243-5-5S68.243,33,71,33 M71,31
			c-3.866,0-7,3.134-7,7s3.134,7,7,7s7-3.134,7-7S74.866,31,71,31L71,31z"/>
		<path style="fill:#40C9E7;" d="M41,78H31V63c0-2.761,2.239-5,5-5s5,2.239,5,5V78z"/>
		<rect x="31" y="71" style="fill:#40C9E7;" width="10" height="7"/>
		<path style="fill:#40C9E7;" d="M55,78H45V63c0-2.761,2.239-5,5-5s5,2.239,5,5V78z"/>
		<rect x="45" y="71" style="fill:#40C9E7;" width="10" height="7"/>
		<path style="fill:#40C9E7;" d="M55,51H45V36c0-2.761,2.239-5,5-5s5,2.239,5,5V51z"/>
		<rect x="45" y="44" style="fill:#40C9E7;" width="10" height="7"/>
		<path style="fill:#6FDAF1;" d="M55,37.35V36c0-2.761-2.239-5-5-5s-5,2.239-5,5v11.35L55,37.35z"/>
		<polygon style="fill:#6FDAF1;" points="48.35,44 45,44 45,47.35 		"/>
		<path style="fill:#6FDAF1;" d="M41,64.35V63c0-2.761-2.239-5-5-5s-5,2.239-5,5v11.35L41,64.35z"/>
		<polygon style="fill:#6FDAF1;" points="34.35,71 31,71 31,74.35 		"/>
		<path style="fill:#6FDAF1;" d="M55,64.35V63c0-2.761-2.239-5-5-5s-5,2.239-5,5v11.35L55,64.35z"/>
		<polygon style="fill:#6FDAF1;" points="48.35,71 45,71 45,74.35 		"/>
		<rect x="45" y="42" style="fill:#FFFFFF;" width="10" height="2"/>
		<rect x="31" y="69" style="fill:#FFFFFF;" width="10" height="2"/>
		<rect x="45" y="69" style="fill:#FFFFFF;" width="10" height="2"/>
		<polygon style="fill:#FFFFFF;" points="23,51 59,51 59,55 27,55 		"/>
		<path style="fill:#40C9E7;" d="M41,51H31V36c0-2.761,2.239-5,5-5s5,2.239,5,5V51z"/>
		<rect x="31" y="44" style="fill:#40C9E7;" width="10" height="7"/>
		<path style="fill:#6FDAF1;" d="M41,37.35V36c0-2.761-2.239-5-5-5s-5,2.239-5,5v11.35L41,37.35z"/>
		<rect x="31" y="42" style="fill:#FFFFFF;" width="10" height="2"/>
		<path style="fill:#FFFFFF;" d="M83,87h4V65c0-1.105-0.895-2-2-2s-2,0.895-2,2V87z"/>
	</g>
</g>
</svg>
