<?xml version="1.0" encoding="iso-8859-1"?>
<!-- Generator: Adobe Illustrator 17.1.0, SVG Export Plug-In . SVG Version: 6.00 Build 0)  -->
<!DOCTYPE svg PUBLIC "-//W3C//DTD SVG 1.0//EN" "http://www.w3.org/TR/2001/REC-SVG-20010904/DTD/svg10.dtd">
<svg version="1.0" xmlns="http://www.w3.org/2000/svg" xmlns:xlink="http://www.w3.org/1999/xlink" x="0px" y="0px" width="110px"
	 height="110px" viewBox="0 0 110 110" style="enable-background:new 0 0 110 110;" xml:space="preserve">
<g id="Artboard">
</g>
<g id="Multicolor">
	<circle style="fill:#25B7D3;" cx="55" cy="55" r="55"/>
	<g>
		<g>
			<path style="fill:#84462D;" d="M23,27c0-2.209,1.791-4,4-4h56c2.209,0,4,1.791,4,4v56c0,2.209-1.791,4-4,4H27
				c-2.209,0-4-1.791-4-4V27z"/>
		</g>
		<g>
			<rect x="27" y="27" style="fill:#FFFFFF;" width="56" height="56"/>
		</g>
		<g>
			<rect x="27" y="69" style="fill:#3E3E3F;" width="14" height="14"/>
		</g>
		<g>
			<rect x="41" y="55" style="fill:#3E3E3F;" width="14" height="14"/>
		</g>
		<g>
			<rect x="55" y="41" style="fill:#3E3E3F;" width="14" height="14"/>
		</g>
		<g>
			<rect x="55" y="69" style="fill:#3E3E3F;" width="14" height="14"/>
		</g>
		<g>
			<rect x="69" y="27" style="fill:#3E3E3F;" width="14" height="14"/>
		</g>
		<g>
			<rect x="41" y="27" style="fill:#5B5C5F;" width="14" height="14"/>
		</g>
		<g>
			<polygon style="fill:#3E3E3F;" points="55,41 41,41 55,27 			"/>
		</g>
		<g>
			<rect x="27" y="41" style="fill:#5B5C5F;" width="14" height="14"/>
		</g>
		<g>
			<polygon style="fill:#3E3E3F;" points="41,55 27,55 41,41 			"/>
		</g>
		<g>
			<rect x="69" y="55" style="fill:#3E3E3F;" width="14" height="14"/>
		</g>
		<g>
			<circle style="fill:#FFFFFF;" cx="48" cy="62" r="4"/>
		</g>
		<g>
			<circle style="fill:#FFFFFF;" cx="76" cy="62" r="4"/>
		</g>
		<g>
			<circle style="fill:#FFFFFF;" cx="62" cy="76" r="4"/>
		</g>
		<g>
			<circle style="fill:#FFFFFF;" cx="34" cy="76" r="4"/>
		</g>
	</g>
</g>
</svg>
