<?xml version="1.0" encoding="iso-8859-1"?>
<!-- Generator: Adobe Illustrator 17.1.0, SVG Export Plug-In . SVG Version: 6.00 Build 0)  -->
<!DOCTYPE svg PUBLIC "-//W3C//DTD SVG 1.0//EN" "http://www.w3.org/TR/2001/REC-SVG-20010904/DTD/svg10.dtd">
<svg version="1.0" xmlns="http://www.w3.org/2000/svg" xmlns:xlink="http://www.w3.org/1999/xlink" x="0px" y="0px" width="110px"
	 height="110px" viewBox="0 0 110 110" style="enable-background:new 0 0 110 110;" xml:space="preserve">
<g id="Artboard">
</g>
<g id="Multicolor">
	<circle style="fill:#25B7D3;" cx="55" cy="55" r="55"/>
	<g>
		<g>
			<polygon style="fill:#3E3E3F;" points="67,23 43,23 31,39 43,87 67,87 79,39 			"/>
		</g>
		<g>
			<polygon style="fill:#5B5C5F;" points="55,23 43,23 31,39 43,87 55,87 			"/>
		</g>
		<g>
			<polygon style="fill:#E2E4E5;" points="69,41 59,41 59,31 51,31 51,41 41,41 41,49 51,49 51,67 59,67 59,49 69,49 			"/>
		</g>
		<g>
			<polygon style="fill:#FFFFFF;" points="55,67 55,31 51,31 51,41 41,41 41,49 51,49 51,67 			"/>
		</g>
	</g>
</g>
</svg>
