<?xml version="1.0" encoding="iso-8859-1"?>
<!-- Generator: Adobe Illustrator 17.1.0, SVG Export Plug-In . SVG Version: 6.00 Build 0)  -->
<!DOCTYPE svg PUBLIC "-//W3C//DTD SVG 1.0//EN" "http://www.w3.org/TR/2001/REC-SVG-20010904/DTD/svg10.dtd">
<svg version="1.0" xmlns="http://www.w3.org/2000/svg" xmlns:xlink="http://www.w3.org/1999/xlink" x="0px" y="0px" width="110px"
	 height="110px" viewBox="0 0 110 110" style="enable-background:new 0 0 110 110;" xml:space="preserve">
<g id="Artboard">
</g>
<g id="Multicolor">
	<circle style="fill:#E04F5F;" cx="55" cy="55" r="55"/>
	<g>
		<g>
			<path style="fill:#E2E4E5;" d="M80.32,34.674c-2.006-2.006-5.008-1.918-6.891-0.034l6.857,6.857
				C82.255,39.528,82.147,36.502,80.32,34.674z"/>
		</g>
		<g>
			<path style="fill:#FFFFFF;" d="M73.428,34.64l3.493,3.493l3.425-3.425C78.47,32.742,75.366,32.676,73.428,34.64z"/>
		</g>
		<path style="fill:#CFD3D4;" d="M76.852,41.502l1.719-1.719l-3.429-3.428l-1.639,1.639C74.718,39.064,75.838,40.238,76.852,41.502z
			"/>
		<path style="fill:#CFD3D4;" d="M55,31c1.358,0,2.693,0.102,4,0.289V28h-8v3.289C52.307,31.102,53.642,31,55,31z"/>
		<g>
			<circle style="fill:#FFFFFF;" cx="55" cy="59" r="28"/>
		</g>
		<g>
			<circle style="fill:#9CE5F4;" cx="55" cy="59.2" r="23"/>
		</g>
		<g>
			<path style="fill:#C9F2F8;" d="M32,59.2c0,12.702,10.297,23,23,23v-46C42.297,36.2,32,46.498,32,59.2z"/>
		</g>
		<g>
			<path style="fill:#DF2C2C;" d="M55,53c-3.503-8-13-5.476-13,3.553C42.179,64.773,55,71,55,71s12.822-6.227,13-14.447
				C68,47.524,58.497,46,55,53z"/>
		</g>
		<g>
			<path style="fill:#E2E4E5;" d="M63,29H47v-2.104C47,25.366,48.241,24,49.771,24h10.458C61.759,24,63,25.366,63,26.896V29z"/>
		</g>
		<g>
			<path style="fill:#FFFFFF;" d="M55,24h-5.229C48.24,24,47,25.366,47,26.896V29h8V24z"/>
		</g>
	</g>
</g>
</svg>
