<?xml version="1.0" encoding="iso-8859-1"?>
<!-- Generator: Adobe Illustrator 17.1.0, SVG Export Plug-In . SVG Version: 6.00 Build 0)  -->
<!DOCTYPE svg PUBLIC "-//W3C//DTD SVG 1.0//EN" "http://www.w3.org/TR/2001/REC-SVG-20010904/DTD/svg10.dtd">
<svg version="1.0" xmlns="http://www.w3.org/2000/svg" xmlns:xlink="http://www.w3.org/1999/xlink" x="0px" y="0px" width="110px"
	 height="110px" viewBox="0 0 110 110" style="enable-background:new 0 0 110 110;" xml:space="preserve">
<g id="Artboard">
</g>
<g id="Multicolor">
	<circle style="fill:#32BEA6;" cx="55" cy="54.848" r="55"/>
	<g>
		<path style="fill:#F0F1F1;" d="M87,49.848c0-5.885-3.635-10.913-8.778-12.983C74.146,26.898,67.562,22.848,59.5,22.848
			c-7.579,0-14.148,4.319-17.369,10.637c-5.125-2.183-10.902,1.442-11.116,7.055C26.35,42.185,23,46.62,23,51.848
			c0,6.627,5.373,12,12,12h40C75,63.848,87,61.622,87,49.848z"/>
		<path style="fill:#FFFFFF;" d="M59.5,22.848c-7.579,0-14.148,4.319-17.369,10.637c-5.125-2.183-10.902,1.442-11.116,7.055
			C26.35,42.185,23,46.62,23,51.848c0,6.293,4.847,11.446,11.011,11.95l37.095-37.096C67.775,24.044,63.856,22.848,59.5,22.848z"/>
		<g>
			<path style="fill:#F3B607;" d="M51,85.848c-1.654,0-3-1.346-3-3v-24c0-1.654,1.346-3,3-3h24c1.654,0,3,1.346,3,3v24
				c0,1.654-1.346,3-3,3H51z"/>
			<path style="fill:#FFFFFF;" d="M75,56.848c1.104,0,2,0.896,2,2v24c0,1.104-0.896,2-2,2H51c-1.104,0-2-0.896-2-2v-24
				c0-1.104,0.896-2,2-2H75 M75,54.848H51c-2.206,0-4,1.794-4,4v24c0,2.206,1.794,4,4,4h24c2.206,0,4-1.794,4-4v-24
				C79,56.643,77.206,54.848,75,54.848L75,54.848z"/>
		</g>
		<circle style="fill:#FBE158;" cx="57" cy="62.848" r="4"/>
		<path style="fill:#8E6134;" d="M49,80.848v2c0,1.104,0.896,2,2,2h12l-8-16L49,80.848z"/>
		<polygon style="fill:#FFFFFF;" points="53,72.848 55,76.848 57,72.848 55,68.848 		"/>
		<path style="fill:#A97A45;" d="M77,82.848v-8.286l-8-13.714l-14,24h20C76.104,84.848,77,83.953,77,82.848z"/>
		<polygon style="fill:#FFFFFF;" points="69,72.848 72.5,66.848 69,60.848 65.5,66.848 		"/>
		<g>
			<g>
				<path style="fill:#40C9E7;" d="M39,75.848c-1.654,0-3-1.346-3-3v-24c0-1.654,1.346-3,3-3h24c1.654,0,3,1.346,3,3v24
					c0,1.654-1.346,3-3,3H39z"/>
				<path style="fill:#FFFFFF;" d="M63,46.848c1.104,0,2,0.896,2,2v24c0,1.104-0.896,2-2,2H39c-1.104,0-2-0.896-2-2v-24
					c0-1.104,0.896-2,2-2H63 M63,44.848H39c-2.206,0-4,1.794-4,4v24c0,2.206,1.794,4,4,4h24c2.206,0,4-1.794,4-4v-24
					C67,46.643,65.206,44.848,63,44.848L63,44.848z"/>
			</g>
			<circle style="fill:#FBE158;" cx="45" cy="52.848" r="4"/>
			<path style="fill:#0D9681;" d="M37,70.848v2c0,1.104,0.896,2,2,2h12l-8-16L37,70.848z"/>
			<polygon style="fill:#FFFFFF;" points="41,62.848 43,66.848 45,62.848 43,58.848 			"/>
			<path style="fill:#17B198;" d="M65,72.848v-8.286l-8-13.714l-14,24h20C64.104,74.848,65,73.953,65,72.848z"/>
			<polygon style="fill:#FFFFFF;" points="57,62.848 60.5,56.848 57,50.848 53.5,56.848 			"/>
		</g>
	</g>
</g>
</svg>
