<?xml version="1.0" encoding="iso-8859-1"?>
<!-- Generator: Adobe Illustrator 17.1.0, SVG Export Plug-In . SVG Version: 6.00 Build 0)  -->
<!DOCTYPE svg PUBLIC "-//W3C//DTD SVG 1.0//EN" "http://www.w3.org/TR/2001/REC-SVG-20010904/DTD/svg10.dtd">
<svg version="1.0" xmlns="http://www.w3.org/2000/svg" xmlns:xlink="http://www.w3.org/1999/xlink" x="0px" y="0px" width="110px"
	 height="110px" viewBox="0 0 110 110" style="enable-background:new 0 0 110 110;" xml:space="preserve">
<g id="Artboard">
</g>
<g id="Multicolor">
	<circle style="fill:#25B7D3;" cx="55" cy="55" r="55"/>
	<g>
		<g>
			<path style="fill:#F0F1F1;" d="M81.937,24.303C81.205,23.507,80.166,23,79,23H31c-2.209,0-4,1.791-4,4v56c0,2.209,1.791,4,4,4h48
				c2.209,0,4-1.791,4-4V27C83,25.957,82.591,25.015,81.937,24.303z"/>
		</g>
		<g>
			<path style="fill:#FFFFFF;" d="M31,29c0-1.104,0.895-2,2-2h12c1.105,0,2,0.896,2,2v30.239l4.436-4.436
				C51.179,54.623,51,54.338,51,54V44c0-0.552,0.448-1,1-1h10c0.338,0,0.622,0.179,0.803,0.436l4.632-4.632
				C67.179,38.623,67,38.338,67,38V28c0-0.552,0.448-1,1-1h10c0.338,0,0.622,0.179,0.803,0.436l3.133-3.133
				C81.205,23.507,80.166,23,79,23H31c-2.209,0-4,1.791-4,4v52.239l4-4V29z M51,28c0-0.552,0.448-1,1-1h10c0.552,0,1,0.448,1,1v10
				c0,0.552-0.448,1-1,1H52c-0.552,0-1-0.448-1-1V28z"/>
		</g>
		<g>
			<path style="fill:#F4D0A1;" d="M45,27H33c-1.105,0-2,0.896-2,2v46.239V81c0,1.104,0.895,2,2,2h12c1.105,0,2-0.896,2-2V59.239V29
				C47,27.896,46.105,27,45,27z"/>
		</g>
		<g>
			<path style="fill:#F8E1C2;" d="M45,27H33c-1.105,0-2,0.896-2,2v46.239l16-16V29C47,27.896,46.105,27,45,27z"/>
		</g>
		<g>
			<path style="fill:#F79392;" d="M52,39h10c0.552,0,1-0.448,1-1V28c0-0.552-0.448-1-1-1H52c-0.552,0-1,0.448-1,1v10
				C51,38.552,51.448,39,52,39z"/>
		</g>
		<g>
			<path style="fill:#FACB1B;" d="M78.803,27.436C78.622,27.179,78.338,27,78,27H68c-0.552,0-1,0.448-1,1v10
				c0,0.338,0.179,0.623,0.436,0.803C67.598,38.918,67.786,39,68,39h10c0.552,0,1-0.448,1-1V28
				C79,27.786,78.918,27.599,78.803,27.436z"/>
		</g>
		<g>
			<path style="fill:#FBE158;" d="M78,27H68c-0.552,0-1,0.448-1,1v10c0,0.338,0.179,0.623,0.436,0.803l11.368-11.368
				C78.622,27.179,78.338,27,78,27z"/>
		</g>
		<g>
			<path style="fill:#12B2A0;" d="M62.803,43.436C62.622,43.179,62.338,43,62,43H52c-0.552,0-1,0.448-1,1v10
				c0,0.338,0.179,0.623,0.436,0.803C51.598,54.918,51.786,55,52,55h10c0.552,0,1-0.448,1-1V44
				C63,43.786,62.918,43.599,62.803,43.436z"/>
		</g>
		<g>
			<path style="fill:#47C4B7;" d="M62,43H52c-0.552,0-1,0.448-1,1v10c0,0.338,0.179,0.623,0.436,0.803l11.368-11.368
				C62.622,43.179,62.338,43,62,43z"/>
		</g>
		<g>
			<path style="fill:#84462D;" d="M39,43h-4v4l1.876,30.024C36.946,78.135,37.867,79,38.98,79H39h0.02
				c1.113,0,2.034-0.865,2.104-1.976L43,47v-4H39z"/>
		</g>
		<g>
			<path style="fill:#9C6144;" d="M35,43v4l1.876,30.024C36.946,78.135,37.867,79,38.98,79H39V43H35z"/>
		</g>
		<g>
			<path style="fill:#47C4B7;" d="M79,54c0,0.552-0.448,1-1,1H68c-0.552,0-1-0.448-1-1V44c0-0.552,0.448-1,1-1h10
				c0.552,0,1,0.448,1,1V54z"/>
		</g>
		<g>
			<path style="fill:#40C9E7;" d="M63,70c0,0.552-0.448,1-1,1H52c-0.552,0-1-0.448-1-1V60c0-0.552,0.448-1,1-1h10
				c0.552,0,1,0.448,1,1V70z"/>
		</g>
		<g>
			<path style="fill:#40C9E7;" d="M79,70c0,0.552-0.448,1-1,1H68c-0.552,0-1-0.448-1-1V60c0-0.552,0.448-1,1-1h10
				c0.552,0,1,0.448,1,1V70z"/>
		</g>
		<g>
			<path style="fill:#F4D0A1;" d="M79,82c0,0.552-0.448,1-1,1H52c-0.552,0-1-0.448-1-1v-6c0-0.552,0.448-1,1-1h26
				c0.552,0,1,0.448,1,1V82z"/>
		</g>
		<g>
			<path style="fill:#3E3E3F;" d="M39,30L39,30c0,0-5,5.687-5,9c0,1.851,0.713,3.175,1.811,4H39h3.189
				C43.287,42.175,44,40.851,44,39C44,35.687,39.001,30.001,39,30z"/>
		</g>
		<g>
			<path style="fill:#5B5C5F;" d="M34,39c0,1.851,0.713,3.175,1.811,4H39V30h0C39,30,34,35.687,34,39z"/>
		</g>
		<g>
			<polygon style="fill:#F3B607;" points="39,43 35,43 35,47 39,47 43,47 43,43 			"/>
		</g>
		<g>
			<polygon style="fill:#FACB1B;" points="35.811,43 35,43 35,47 39,47 39,43 			"/>
		</g>
	</g>
</g>
</svg>
