<?xml version="1.0" encoding="iso-8859-1"?>
<!-- Generator: Adobe Illustrator 17.1.0, SVG Export Plug-In . SVG Version: 6.00 Build 0)  -->
<!DOCTYPE svg PUBLIC "-//W3C//DTD SVG 1.0//EN" "http://www.w3.org/TR/2001/REC-SVG-20010904/DTD/svg10.dtd">
<svg version="1.0" xmlns="http://www.w3.org/2000/svg" xmlns:xlink="http://www.w3.org/1999/xlink" x="0px" y="0px" width="110px"
	 height="110px" viewBox="0 0 110 110" style="enable-background:new 0 0 110 110;" xml:space="preserve">
<g id="Artboard">
</g>
<g id="Multicolor">
	<circle style="fill:#32BEA6;" cx="55" cy="55" r="55"/>
	<g>
		<path style="fill:#FFFFFF;" d="M83,31c0-2.209-1.791-4-4-4H31c-2.209,0-4,1.791-4,4v24h56V31z"/>
		<path style="fill:#FA5655;" d="M51,49.239V55h3v-5.05C52.949,49.854,51.944,49.608,51,49.239z"/>
		<path style="fill:#FACB1B;" d="M55,50c-0.337,0-0.67-0.021-1-0.05V55h3v-5.19C56.351,49.929,55.684,50,55,50z"/>
		<path style="fill:#21B2D1;" d="M57,49.81V55h3v-6.21C59.068,49.267,58.062,49.614,57,49.81z"/>
		<circle style="fill:#CFD3D4;" cx="55" cy="39" r="11"/>
		<path style="fill:#CFD3D4;" d="M55,28c-6.075,0-11,4.925-11,11c0,3.39,1.536,6.42,3.947,8.438l2.136-2.136
			C48.209,43.837,47,41.563,47,39c0-4.418,3.582-8,8-8c2.562,0,4.837,1.209,6.302,3.083l2.136-2.136C61.42,29.536,58.39,28,55,28z"
			/>
		<path style="fill:#E2E4E5;" d="M86.795,62.384L83,55H27l-3.795,7.384c-0.067,0.201-0.117,0.407-0.151,0.616h63.893
			C86.912,62.792,86.862,62.585,86.795,62.384z"/>
		<path style="fill:#FFFFFF;" d="M87,73v-9.351c0-0.218-0.019-0.435-0.054-0.649H23.054C23.019,63.214,23,63.431,23,63.649V73
			c0,1.104,0.896,2,2,2h60C86.104,75,87,74.104,87,73z"/>
		<circle style="fill:#DF2C2C;" cx="36" cy="43" r="4"/>
		<path style="fill:#21B2D1;" d="M79,40c0,0.552-0.448,1-1,1h-8c-0.552,0-1-0.448-1-1v-8c0-0.552,0.448-1,1-1h8c0.552,0,1,0.448,1,1
			V40z"/>
		<circle style="fill:#6FDAF1;" cx="74" cy="36" r="4"/>
		<circle style="fill:#3E3E3F;" cx="55" cy="39" r="8"/>
		<polygon style="fill:#DF2C2C;" points="54,63 49,63 51,55 54,55 		"/>
		<polygon style="fill:#059BBF;" points="62,63 57,63 57,55 60,55 		"/>
		<polygon style="fill:#F3B607;" points="58,63 53,63 54,55 57,55 		"/>
		<path style="fill:#3E3E3F;" d="M83,69c0,1.1-0.9,2-2,2H29c-1.1,0-2-0.9-2-2l0,0c0-1.1,0.9-2,2-2h52C82.1,67,83,67.9,83,69L83,69z"
			/>
		<path style="fill:#FA5655;" d="M36,39c-2.209,0-4,1.791-4,4c0,1.103,0.446,2.1,1.167,2.824l5.656-5.656
			C38.1,39.446,37.103,39,36,39z"/>
		<path style="fill:#F0F1F1;" d="M74.917,69H55H35.083C31.5,71.917,27,82.583,27,87h28h28C83,82.583,78.5,71.917,74.917,69z"/>
		<path style="fill:#6FDAF1;" d="M69.266,69H55H40.734c-2.567,1.62-5.79,7.546-5.79,10H55h20.056
			C75.056,76.546,71.832,70.62,69.266,69z"/>
		<path style="fill:#FFFFFF;" d="M34.944,79c0-2.454,3.223-8.38,5.79-10h-5.651C31.5,71.916,27,82.583,27,87h12.991l8-8H34.944z"/>
		<path style="fill:#9CE5F4;" d="M40.734,69c-2.567,1.62-5.79,7.546-5.79,10h13.047l10-10H55H40.734z"/>
		<path style="fill:#5B5C5F;" d="M55,31c-4.418,0-8,3.582-8,8c0,2.541,1.188,4.801,3.036,6.267l11.23-11.23
			C59.801,32.188,57.541,31,55,31z"/>
	</g>
</g>
</svg>
