<?xml version="1.0" encoding="iso-8859-1"?>
<!-- Generator: Adobe Illustrator 17.1.0, SVG Export Plug-In . SVG Version: 6.00 Build 0)  -->
<!DOCTYPE svg PUBLIC "-//W3C//DTD SVG 1.0//EN" "http://www.w3.org/TR/2001/REC-SVG-20010904/DTD/svg10.dtd">
<svg version="1.0" xmlns="http://www.w3.org/2000/svg" xmlns:xlink="http://www.w3.org/1999/xlink" x="0px" y="0px" width="110px"
	 height="110px" viewBox="0 0 110 110" style="enable-background:new 0 0 110 110;" xml:space="preserve">
<g id="Artboard">
</g>
<g id="Multicolor">
	<circle style="fill:#32BEA6;" cx="55" cy="55" r="55"/>
	<g>
		<rect x="47" y="23" style="fill:#3E3E3F;" width="12" height="14"/>
		<circle style="fill:#5B5C5F;" cx="53" cy="30" r="5"/>
		<rect x="27" y="65" style="fill:#F0F1F1;" width="52" height="18"/>
		<rect x="27" y="59" style="fill:#CFD3D4;" width="52" height="6"/>
		<polygon style="fill:#FFFFFF;" points="27,59 35,47 71,47 79,59 		"/>
		<path style="fill:#3E3E3F;" d="M85,63h-2v10h2c1.104,0,2-0.896,2-2v-6C87,63.896,86.104,63,85,63z"/>
		<g>
			<path style="fill:#FFFFFF;" d="M83,75h-4V41c0-2.206-1.794-4-4-4H59v-4h16c4.411,0,8,3.589,8,8V75z"/>
		</g>
		<path style="fill:#3E3E3F;" d="M69,85c0,1.105,0.895,2,2,2h4c1.105,0,2-0.895,2-2v-2h-8V85z"/>
		<path style="fill:#3E3E3F;" d="M29,85c0,1.105,0.895,2,2,2h4c1.105,0,2-0.895,2-2v-2h-8V85z"/>
		<rect x="72" y="71" style="fill:#CFD3D4;" width="2" height="8"/>
		<rect x="67" y="71" style="fill:#CFD3D4;" width="2" height="8"/>
		<rect x="62" y="71" style="fill:#CFD3D4;" width="2" height="8"/>
		<polygon style="fill:#6FDAF1;" points="32,57 37,49 69,49 74,57 		"/>
		<path style="fill:#5B5C5F;" d="M43,39c0,1.105,0.895,2,2,2h16c1.105,0,2-0.895,2-2s-0.895-2-2-2H45C43.895,37,43,37.895,43,39z"/>
		<circle style="fill:#6FDAF1;" cx="53" cy="30" r="3"/>
		<polygon style="fill:#3E3E3F;" points="57,43 49,43 47,41 59,41 		"/>
		<polygon style="fill:#E2E4E5;" points="27,59 27,65 54.869,65 60.869,59 		"/>
		<polygon style="fill:#FFFFFF;" points="27,65 27,83 36.869,83 54.869,65 		"/>
		<rect x="31" y="76" style="fill:#FA5655;" width="4" height="3"/>
		<rect x="36" y="76" style="fill:#32BEA6;" width="4" height="3"/>
	</g>
</g>
</svg>
