<?xml version="1.0" encoding="iso-8859-1"?>
<!-- Generator: Adobe Illustrator 17.1.0, SVG Export Plug-In . SVG Version: 6.00 Build 0)  -->
<!DOCTYPE svg PUBLIC "-//W3C//DTD SVG 1.0//EN" "http://www.w3.org/TR/2001/REC-SVG-20010904/DTD/svg10.dtd">
<svg version="1.0" xmlns="http://www.w3.org/2000/svg" xmlns:xlink="http://www.w3.org/1999/xlink" x="0px" y="0px" width="110px"
	 height="110px" viewBox="0 0 110 110" style="enable-background:new 0 0 110 110;" xml:space="preserve">
<g id="Artboard">
</g>
<g id="Multicolor">
	<circle style="fill:#32BEA6;" cx="55" cy="55" r="55"/>
	<g>
		<g>
			<path style="fill:#F0F1F1;" d="M68.039,48.86c0.614-2.179,1.639-4.503-0.039-7.15c-4.128-6.548-37.831-6.599-42,0
				c-1.673,2.639-0.667,4.922-0.039,7.15C24.064,52.85,23,58.621,23,67c0,13.807,10.193,20,24,20s24-6.193,24-20
				C71,58.621,69.936,52.85,68.039,48.86z"/>
		</g>
		<g>
			<path style="fill:#FFFFFF;" d="M26,41.71c-1.673,2.639-0.667,4.922-0.04,7.15C24.063,52.85,23,58.621,23,67
				c0,13.807,10.193,20,24,20V36.78C37.542,36.775,28.083,38.412,26,41.71z"/>
		</g>
		<g>
			<path style="fill:#F79392;" d="M27,47c0,0-2,14,6,18c0,0,6-3,9-3s5,2,5,2s2-2,5-2s9,3,9,3c8-4,6-18,6-18
				C53.667,41.667,40.333,41.667,27,47z"/>
		</g>
		<g>
			<path style="fill:#F7B4B4;" d="M27,47c0,0-2,14,6,18c0,0,6-3,9-3s5,2,5,2V43C40.333,43,33.667,44.333,27,47z"/>
		</g>
		<g>
			<path style="fill:#DF2C2C;" d="M85,58.54C84.41,58.2,83.73,58,83,58c-0.79,0-1.53,0.23-2.15,0.63
				c-2.98-7.55-6.77-12.57-12.24-15.64c-0.15-0.44-0.35-0.87-0.61-1.28c-3.89-6.17-34.03-6.57-40.99-1.08
				C27.19,38.06,29.22,23,53,23C66.92,23,84.81,29.93,85,58.54z"/>
		</g>
		<g>
			<path style="fill:#FA5655;" d="M47,23.36c-18.133,2.297-19.827,14.935-19.99,17.27c3.265-2.575,11.628-3.854,19.99-3.85V23.36z"
				/>
		</g>
		<g>
			<path style="fill:#FFFFFF;" d="M87,62c0,2.21-1.79,4-4,4c-2.21,0-4-1.79-4-4c0-2.213,1.804-4,4-4C85.133,58,87,59.725,87,62z"/>
		</g>
		<g>
			<path style="fill:#F79392;" d="M47,67c0,0-4,4-8,4c1,2,4,4,8,4s7-2,8-4C51,71,47,67,47,67z"/>
		</g>
		<g>
			<path style="fill:#3E3E3F;" d="M58.869,49.143C58.593,49.059,58.304,49,58,49c-1.657,0-3,1.343-3,3s1.343,3,3,3s3-1.343,3-3
				c0-0.305-0.059-0.593-0.143-0.869C59.706,53.6,56.396,50.296,58.869,49.143z"/>
		</g>
		<g>
			<path style="fill:#3E3E3F;" d="M36.869,49.143C36.593,49.059,36.304,49,36,49c-1.657,0-3,1.343-3,3s1.343,3,3,3s3-1.343,3-3
				c0-0.305-0.059-0.593-0.143-0.869C37.706,53.6,34.396,50.296,36.869,49.143z"/>
		</g>
		<g>
			<ellipse style="fill:#F79392;" cx="47" cy="59.5" rx="6" ry="4.5"/>
		</g>
	</g>
</g>
</svg>
