<?xml version="1.0" encoding="iso-8859-1"?>
<!-- Generator: Adobe Illustrator 17.1.0, SVG Export Plug-In . SVG Version: 6.00 Build 0)  -->
<!DOCTYPE svg PUBLIC "-//W3C//DTD SVG 1.0//EN" "http://www.w3.org/TR/2001/REC-SVG-20010904/DTD/svg10.dtd">
<svg version="1.0" xmlns="http://www.w3.org/2000/svg" xmlns:xlink="http://www.w3.org/1999/xlink" x="0px" y="0px" width="110px"
	 height="110px" viewBox="0 0 110 110" style="enable-background:new 0 0 110 110;" xml:space="preserve">
<g id="Artboard">
</g>
<g id="Multicolor">
	<circle style="fill:#25B7D3;" cx="55" cy="55" r="55"/>
	<g>
		<path style="fill:#E2E4E5;" d="M87,87H23v-0.04c0-2.187,1.773-3.96,3.96-3.96h56.08c2.187,0,3.96,1.773,3.96,3.96V87z"/>
		<rect x="27" y="47" style="fill:#FFFFFF;" width="56" height="36"/>
		<path style="fill:#DF2C2C;" d="M32.143,47c0,2.209-2.047,4-4.571,4S23,49.209,23,47H32.143z"/>
		<path style="fill:#CFD3D4;" d="M41.286,47c0,2.209-2.047,4-4.571,4s-4.571-1.791-4.571-4H41.286z"/>
		<path style="fill:#DF2C2C;" d="M50.429,47c0,2.209-2.047,4-4.571,4s-4.571-1.791-4.571-4H50.429z"/>
		<path style="fill:#CFD3D4;" d="M59.571,47c0,2.209-2.047,4-4.571,4s-4.571-1.791-4.571-4H59.571z"/>
		<path style="fill:#CFD3D4;" d="M77.857,47c0,2.209-2.047,4-4.571,4c-2.525,0-4.571-1.791-4.571-4H77.857z"/>
		<path style="fill:#DF2C2C;" d="M68.714,47c0,2.209-2.047,4-4.571,4c-2.525,0-4.571-1.791-4.571-4H68.714z"/>
		<path style="fill:#DF2C2C;" d="M87,47c0,2.209-2.047,4-4.571,4c-2.525,0-4.571-1.791-4.571-4H87z"/>
		<polygon style="fill:#FA5655;" points="23,47 32.143,47 40.143,27 32.143,27 		"/>
		<polygon style="fill:#FFFFFF;" points="32.143,47 41.286,47 47,27 40.143,27 		"/>
		<polygon style="fill:#FA5655;" points="41.286,47 50.429,47 53.857,27 47,27 		"/>
		<polygon style="fill:#FFFFFF;" points="50.429,47 59.571,47 59.571,27 53.857,27 		"/>
		<polygon style="fill:#FA5655;" points="87,47 77.857,47 72.143,27 79,27 		"/>
		<polygon style="fill:#FFFFFF;" points="77.857,47 68.714,47 65.286,27 72.143,27 		"/>
		<polygon style="fill:#FA5655;" points="68.714,47 59.571,47 59.571,27 65.286,27 		"/>
		<rect x="31" y="55" style="fill:#6FDAF1;" width="28" height="16"/>
		<polygon style="fill:#40C9E7;" points="59,71 31,71 59,55 		"/>
		<rect x="65" y="55" style="fill:#40C9E7;" width="14" height="13"/>
		<rect x="65" y="71" style="fill:#40C9E7;" width="14" height="12"/>
		<path style="fill:#0D9681;" d="M57.978,76c0.26-3.258-3.405-5.625-7.407-5.625c-2.324,0-4.396,0.764-5.759,1.959
			c-0.619-1.182-1.646-1.959-2.812-1.959c-1.093,0-2.055,0.692-2.683,1.75c-0.775-1.918-2.607-3.268-4.746-3.268
			c-2.5,0-4.58,1.845-5.042,4.288c-0.358-0.31-0.784-0.493-1.243-0.493c-1.355,0-2.406,1.54-2.262,3.348H57.978z"/>
		<rect x="26" y="76" style="fill:#9C6144;" width="32" height="7"/>
		<rect x="26" y="76" style="fill:#AF7653;" width="32" height="2"/>
	</g>
</g>
</svg>
