<?xml version="1.0" encoding="iso-8859-1"?>
<!-- Generator: Adobe Illustrator 17.1.0, SVG Export Plug-In . SVG Version: 6.00 Build 0)  -->
<!DOCTYPE svg PUBLIC "-//W3C//DTD SVG 1.0//EN" "http://www.w3.org/TR/2001/REC-SVG-20010904/DTD/svg10.dtd">
<svg version="1.0" xmlns="http://www.w3.org/2000/svg" xmlns:xlink="http://www.w3.org/1999/xlink" x="0px" y="0px" width="110px"
	 height="110px" viewBox="0 0 110 110" style="enable-background:new 0 0 110 110;" xml:space="preserve">
<g id="Artboard">
</g>
<g id="Multicolor">
	<circle style="fill:#32BEA6;" cx="55" cy="55" r="55"/>
	<g>
		<rect x="63" y="43" style="fill:#FFFFFF;" width="20" height="37"/>
		<rect x="27" y="43" style="fill:#FFFFFF;" width="20" height="37"/>
		<rect x="23" y="80" style="fill:#F0F1F1;" width="28" height="7"/>
		<rect x="29" y="39" style="fill:#F0F1F1;" width="16" height="4"/>
		<rect x="31" y="33" style="fill:#E2E4E5;" width="12" height="6"/>
		<polygon style="fill:#F0F1F1;" points="31,33 37,23 43,33 		"/>
		<rect x="59" y="80" style="fill:#F0F1F1;" width="28" height="7"/>
		<rect x="65" y="39" style="fill:#F0F1F1;" width="16" height="4"/>
		<rect x="67" y="33" style="fill:#E2E4E5;" width="12" height="6"/>
		<polygon style="fill:#F0F1F1;" points="67,33 73,23 79,33 		"/>
		<path style="fill:#F0F1F1;" d="M47,54v8h16v-8H47z M59,60h-8v-4h8V60z"/>
		<rect x="30" y="48" style="fill:#40C9E7;" width="14" height="2"/>
		<rect x="30" y="53" style="fill:#40C9E7;" width="14" height="2"/>
		<rect x="30" y="58" style="fill:#40C9E7;" width="14" height="2"/>
		<rect x="30" y="63" style="fill:#40C9E7;" width="14" height="2"/>
		<rect x="30" y="68" style="fill:#40C9E7;" width="14" height="2"/>
		<rect x="30" y="73" style="fill:#40C9E7;" width="14" height="2"/>
		<rect x="66" y="48" style="fill:#40C9E7;" width="14" height="2"/>
		<rect x="66" y="53" style="fill:#40C9E7;" width="14" height="2"/>
		<rect x="66" y="58" style="fill:#40C9E7;" width="14" height="2"/>
		<rect x="66" y="63" style="fill:#40C9E7;" width="14" height="2"/>
		<rect x="66" y="68" style="fill:#40C9E7;" width="14" height="2"/>
		<rect x="66" y="73" style="fill:#40C9E7;" width="14" height="2"/>
		<polygon style="fill:#FFFFFF;" points="37,23 31,33 37,33 		"/>
		<polygon style="fill:#FFFFFF;" points="73,23 67,33 73,33 		"/>
	</g>
</g>
</svg>
