<?xml version="1.0" encoding="iso-8859-1"?>
<!-- Generator: Adobe Illustrator 17.1.0, SVG Export Plug-In . SVG Version: 6.00 Build 0)  -->
<!DOCTYPE svg PUBLIC "-//W3C//DTD SVG 1.0//EN" "http://www.w3.org/TR/2001/REC-SVG-20010904/DTD/svg10.dtd">
<svg version="1.0" xmlns="http://www.w3.org/2000/svg" xmlns:xlink="http://www.w3.org/1999/xlink" x="0px" y="0px" width="110px"
	 height="110px" viewBox="0 0 110 110" style="enable-background:new 0 0 110 110;" xml:space="preserve">
<g id="Artboard">
</g>
<g id="Multicolor">
	<circle style="fill:#FABC3D;" cx="55" cy="55" r="55"/>
	<g>
		<polygon style="fill:#F0F1F1;" points="87,43 83,43 75,47 75,63 83,67 87,67 		"/>
		<path style="fill:#3E3E3F;" d="M79,31c0,2.209-1.791,4-4,4H63v-8h12C77.209,27,79,28.791,79,31z"/>
		<rect x="36" y="71" style="fill:#F0F1F1;" width="22" height="4"/>
		<polygon style="fill:#3E3E3F;" points="61,87 55,75 39,75 33,87 39,87 44,77 44,87 50,87 50,77 55,87 		"/>
		<path style="fill:#3E3E3F;" d="M31.422,35.211C31.145,35.072,30.838,35,30.528,35H25c-1.104,0-2,0.896-2,2v32c0,1.104,0.896,2,2,2
			h40c1.104,0,2-0.896,2-2v-6h8V47h-8v-6c0-1.104-0.896-2-2-2H42.07l4-6H63v-4H43.93l-6.232,9.349"/>
		<circle style="fill:#F79392;" cx="59" cy="46" r="2"/>
		<path style="fill:#5B5C5F;" d="M75,27H63v4h16C79,28.791,77.209,27,75,27z"/>
		<polygon style="fill:#FFFFFF;" points="75,47 75,55 87,55 87,43 83,43 		"/>
		<rect x="43" y="62" style="fill:#818284;" width="18" height="3"/>
	</g>
</g>
</svg>
